# xmcd
#
# Track frame offsets: 
#        150
#        10777
#        20252
#        29645
#        40115
#        51648
#        60368
#        71802
#        82937
#        94624
#        105460
#        116562
#        127116
#        137974
#        146042
#        156334
#        167474
#        179722
#        189967
#        203698
#        215132
#        227038
#        236138
#        248273
#        257529
#        267530
#
# Disc length: 3711 seconds
#
# Revision: 6
# Processed by: cddbd v1.5.2PL0 Copyright (c) Steve Scherf et al.
# Submitted via: ExactAudioCopyFreeDBPlugin 1.0
#
DISCID=740e7d1a
DTITLE=Various Artist - The Complete Goldwax Singles, 1962-1970
DYEAR=2009
DGENRE=Rhythm and Blues
TTITLE0=The Ovations - Me and My Imagination
TTITLE1=The Ovations - They Say
TTITLE2=Percy Milem - Crying Baby Baby Baby
TTITLE3=Percy Milem - Call on Me
TTITLE4=Eddie Jefferson - When You Look in the Mirror
TTITLE5=Eddie Jefferson - Some Other Time
TTITLE6=James Carr - The Dark End of the Street
TTITLE7=James Carr - Lovable Girl
TTITLE8=Barbara Perry - Say You Need It
TTITLE9=Barbara Perry - Unlovable
TTITLE10=The Terry's - Cry Me a Hand Full
TTITLE11=The Terry's - Stormy Love Affair
TTITLE12=Ivory Joe Hunter - Don't You Believe Him
TTITLE13=Ivory Joe Hunter - What's the Matter Baby
TTITLE14=Timmy Thomas - Have Some Boogaloo
TTITLE15=Timmy Thomas - Liquid Mood
TTITLE16=Spencer Wiggins - Uptight Good Woman
TTITLE17=Spencer Wiggins - Anything You Do is Alright
TTITLE18=The Ovations - I've Gotta Go (ft Louis Williams)
TTITLE19=The Ovations - Ride My Troubles and Blues Away (ft Louis Will
TTITLE19=iams)
TTITLE20=Kathy Davis - The Wife of the Life of the Party
TTITLE21=Kathy Davis - You Can Dish it Out (But Can You Take It)
TTITLE22=James Carr - Let it Happen
TTITLE23=James Carr - A Losing Game
TTITLE24=Carmol Taylor - Did She Ask About Me
TTITLE25=Carmol Taylor - Here Comes the Fool
EXTD=
EXTT0=
EXTT1=
EXTT2=
EXTT3=
EXTT4=
EXTT5=
EXTT6=
EXTT7=
EXTT8=
EXTT9=
EXTT10=
EXTT11=
EXTT12=
EXTT13=
EXTT14=
EXTT15=
EXTT16=
EXTT17=
EXTT18=
EXTT19=
EXTT20=
EXTT21=
EXTT22=
EXTT23=
EXTT24=
EXTT25=
PLAYORDER=
